<svg xmlns="http://www.w3.org/2000/svg" width="24.002" height="24" viewBox="0 0 24.002 24"><defs><style>.a{fill:#4c4c4c;}.b{fill:#747474;}.c{fill:#fff;}</style></defs><g transform="translate(-118 -46.002)"><circle class="a" cx="11.944" cy="11.944" r="11.944" transform="translate(118 46.114)"/><path class="b" d="M465.208,1196.357c5.889,0,10.664,5.336,10.664,11.917s-4.775,11.92-10.664,11.92-10.663-5.338-10.663-11.92S459.319,1196.357,465.208,1196.357Z" transform="translate(-333.871 -1150.355)"/><g transform="translate(125.639 50.896)"><path class="a" d="M473.075,1206.7l-3.314-1.192a2.957,2.957,0,0,0-3.784,1.777v.007l-.1.27,3.3,1.185a.16.16,0,0,1-.109.3l-3.3-1.184-.525,1.463,3.3,1.186a.159.159,0,0,1,.1.2h0a.163.163,0,0,1-.2.1l-3.3-1.185-.525,1.462,3.3,1.185a.16.16,0,1,1-.109.3h0l-3.3-1.185-.525,1.462,3.3,1.185a.159.159,0,0,1-.1.3h-.006l-3.3-1.192-.088.288a2.954,2.954,0,0,0,1.473,3.487v2.38l.008,0,.363,2.861H466.9l.428-2.086.009,0,2.357-1.646c.074.006.147.009.218.009a2.952,2.952,0,0,0,2.732-1.823l.116-.277-3.087-1.11a.156.156,0,0,1-.09-.081.159.159,0,0,1,.2-.218l3.08,1.107.525-1.462-3.079-1.107a.154.154,0,0,1-.09-.082.16.16,0,0,1-.006-.122.164.164,0,0,1,.2-.1l3.08,1.106.525-1.462-3.079-1.106a.16.16,0,1,1,.109-.3l3.079,1.107.525-1.462-3.079-1.107a.159.159,0,0,1,.109-.3l3.08,1.107.1-.269A2.964,2.964,0,0,0,473.075,1206.7Zm-6.316,13.165-.029,2.144h-.907l.006-2.493v-.034l.933.324Zm.561-.47-1.5-.522v-1.511l3.1.914Zm7.081-9.378-2.523-.906a.746.746,0,0,0-.936.441.732.732,0,0,0,.441.937h0l2.54.913-.138.382-2.54-.913a.748.748,0,0,0-.937.442.733.733,0,0,0,.442.937l2.54.913-.138.382-2.541-.913a.745.745,0,0,0-.936.441.731.731,0,0,0,.44.936h0l2.541.913-.138.382-2.541-.912a.746.746,0,0,0-.937.441.731.731,0,0,0,.44.936h0l2.5.9a2.381,2.381,0,0,1-2.874,1.057l-3.313-1.19a2.383,2.383,0,0,1-1.544-2.646l2.721.977a.745.745,0,0,0,.937-.441.734.734,0,0,0-.441-.937l-2.759-.991.138-.382,2.759.991a.746.746,0,0,0,.937-.441.735.735,0,0,0-.441-.937l-2.759-.991.138-.382,2.759.991a.745.745,0,0,0,.936-.441.733.733,0,0,0-.441-.937l-2.758-.991.138-.382,2.758.991a.745.745,0,0,0,.937-.441.734.734,0,0,0-.441-.937l-2.743-.985a2.384,2.384,0,0,1,2.941-1.176l3.313,1.19a2.388,2.388,0,0,1,1.52,2.779Z" transform="translate(-463.647 -1205.33)"/><path class="c" d="M468.572,1231.6v.058l-.029,2.144h-.909l.006-2.493v-.034Z" transform="translate(-465.459 -1217.122)"/><path class="c" d="M470.733,1228.3l-1.6,1.12-1.5-.522v-1.512Z" transform="translate(-465.457 -1215.354)"/><path class="c" d="M471.415,1210.036a.732.732,0,0,0,.44.937h0l2.54.912-.139.382-2.54-.913a.748.748,0,0,0-.937.442.732.732,0,0,0,.441.936l2.541.912-.138.382-2.541-.913a.745.745,0,0,0-.936.441.731.731,0,0,0,.439.936h0l2.541.912-.138.382-2.541-.913a.747.747,0,0,0-.937.441.731.731,0,0,0,.44.936h0l2.5.9a2.381,2.381,0,0,1-2.874,1.058l-3.313-1.19a2.383,2.383,0,0,1-1.544-2.646l2.721.977a.745.745,0,0,0,.937-.441.734.734,0,0,0-.441-.937l-2.759-.992.138-.382,2.759.991a.746.746,0,0,0,.937-.441.734.734,0,0,0-.441-.937l-2.755-.983.138-.382,2.759.991a.745.745,0,0,0,.936-.441.733.733,0,0,0-.441-.937l-2.759-.991.138-.382,2.758.991a.745.745,0,0,0,.937-.441.733.733,0,0,0-.441-.936l-2.743-.985a2.384,2.384,0,0,1,2.941-1.176l3.313,1.19a2.389,2.389,0,0,1,1.521,2.782l-2.524-.907A.747.747,0,0,0,471.415,1210.036Z" transform="translate(-464.121 -1205.814)"/></g><path class="c" d="M465.837,1220.014c-5.463,0-9.908-4.862-9.908-10.839s4.444-10.837,9.908-10.837,9.908,4.861,9.908,10.837S471.3,1220.014,465.837,1220.014Zm0-20.585c-4.862,0-8.817,4.372-8.817,9.746s3.955,9.748,8.817,9.748,8.817-4.372,8.817-9.748S470.7,1199.429,465.837,1199.429Z" transform="translate(-334.5 -1151.256)"/></g></svg>